<svg xmlns="http://www.w3.org/2000/svg" width="512" height="512" viewBox="0 0 512 512" version="1.1">
	<rect width="512" height="512" fill="rgb(255,127,39)" />
	<path d="M 0 256.002 L 0 512.004 256.250 511.752 L 512.500 511.500 512.752 255.750 L 513.004 0 256.502 0 L 0 0 0 256.002 M 0.492 256.500 C 0.492 397.300, 0.608 454.751, 0.750 384.170 C 0.892 313.588, 0.892 198.388, 0.750 128.170 C 0.608 57.951, 0.492 115.700, 0.492 256.500 M 270.348 92.140 C 269.317 93.438, 267.911 99, 268.613 99 C 268.798 99, 269.663 97.619, 270.535 95.932 C 272.265 92.587, 272.132 89.893, 270.348 92.140 M 300 128.717 C 298.625 128.895, 291.650 129.945, 284.500 131.051 C 277.350 132.156, 268.800 133.478, 265.500 133.987 C 262.200 134.497, 256.080 135.214, 251.899 135.581 C 244.894 136.197, 244.258 136.095, 243.786 134.290 C 243.402 132.821, 241.755 132.009, 237.203 131.043 C 231.556 129.845, 230.899 129.899, 227.787 131.823 C 225.821 133.038, 223.919 135.336, 223.174 137.396 C 222.477 139.324, 220.577 142.019, 218.953 143.386 C 215.088 146.638, 215.228 148.901, 219.577 153.513 C 225.862 160.177, 225.988 160.574, 224.519 169 C 223.800 173.125, 222.697 183.925, 222.068 193 C 218.626 242.690, 217.968 253.862, 217.007 279 C 215.994 305.476, 215.146 313.409, 210.936 335.801 C 208.141 350.670, 208.305 354.369, 211.869 356.907 C 218.764 361.817, 223.803 361.463, 228.009 355.774 C 230.189 352.825, 230.345 351.627, 230.578 336.067 C 230.714 326.955, 231.961 306.225, 233.349 290 C 234.737 273.775, 236.148 255.867, 236.485 250.204 C 236.822 244.542, 237.333 239.295, 237.621 238.544 C 237.946 237.699, 240.495 236.946, 244.323 236.565 C 247.720 236.227, 253.988 235.430, 258.250 234.795 C 266.309 233.594, 273.681 234.255, 289.197 237.569 C 299.478 239.766, 303.061 239.463, 307.850 235.994 C 311.136 233.613, 312 232.359, 312 229.969 C 312 226.435, 311.831 226.348, 295 221.306 C 283.535 217.870, 269.434 216.292, 248 216.044 C 244.425 216.003, 240.941 215.615, 240.259 215.181 C 239.276 214.557, 239.350 211.589, 240.611 200.946 C 241.770 191.170, 242.026 183.643, 241.548 173.367 L 240.891 159.234 243.992 158.152 C 245.698 157.558, 248.258 156.155, 249.682 155.036 C 252.027 153.191, 253.695 153, 267.451 153 C 275.801 153, 285.249 152.516, 288.447 151.925 C 295.755 150.574, 304.459 146.504, 307.031 143.233 C 311.829 137.134, 307.295 127.773, 300 128.717 M 198.057 172.803 L 194.615 175.685 199.038 176.278 C 201.471 176.605, 203.605 176.728, 203.781 176.552 C 203.957 176.376, 203.516 174.813, 202.800 173.077 L 201.500 169.922 198.057 172.803 M 278.299 187.892 C 276.792 190.306, 277.531 191, 281.608 191 C 285.766 191, 286.670 189.582, 283.794 187.568 C 280.874 185.523, 279.737 185.590, 278.299 187.892 M 317.261 260.074 C 320.412 261.737, 321.384 261.859, 323.261 260.825 C 325.401 259.646, 325.323 259.558, 321.500 258.853 C 314.416 257.546, 313.159 257.908, 317.261 260.074 M 194.308 262.098 C 192.073 266.604, 191.796 270.705, 193.505 274.010 C 194.800 276.514, 194.917 277.800, 194.069 280.233 C 193.481 281.919, 193 285.131, 193 287.371 L 193 291.444 195.166 289.278 C 197.058 287.387, 197.333 285.997, 197.342 278.306 C 197.347 273.463, 196.934 267.294, 196.425 264.598 C 195.545 259.932, 195.442 259.811, 194.308 262.098 M 276.843 307.843 C 273.237 312.888, 272.786 317.737, 275.738 319.722 C 277.953 321.212, 277.964 321.196, 276.869 318.054 C 275.904 315.286, 276.042 314.584, 277.953 312.550 C 279.447 310.959, 280.041 309.251, 279.822 307.173 L 279.500 304.127 276.843 307.843 M 221.336 374.438 L 224.500 377.997 224.825 375.407 C 225.214 372.307, 225.303 372.406, 221.336 371.556 L 218.172 370.879 221.336 374.438" stroke="black" fill="black" fill-rule="evenodd"/>
</svg>